<svg xmlns="http://www.w3.org/2000/svg" id="export" class="canvas" preserveAspectRatio="xMidYMid meet" style="" width="763" height="354"><rect id="background" fill="#fff" pointer-events="all" width="763" height="354"/><g id="origin" transform="translate(16.085501098632815, 16.085501098632815) scale(1)"><g id="clusters" class="clusters"/><g id="edge-paths" class="edge-paths"><defs><marker id="arrowhead-vee" viewBox="0 0 10 10" refX="9" refY="5" markerUnits="strokeWidth" markerWidth="8" markerHeight="6" orient="auto" style="fill: rgb(0, 0, 0);"><path d="M 0 0 L 10 5 L 0 10 L 4 5 z" style="stroke-width: 1px;"/></marker><marker id="arrowhead-vee-select" viewBox="0 0 10 10" refX="9" refY="5" markerUnits="strokeWidth" markerWidth="8" markerHeight="6" orient="auto" style="fill: rgb(238, 0, 0);"><path d="M 0 0 L 10 5 L 0 10 L 4 5 z" style="stroke-width: 1px;"/></marker></defs><path id="edge-input_1" class="edge-path" d="M339.03977394104004,22.630001068115234L339.03977394104004,24.296667734781902C339.03977394104004,25.963334401448567,339.03977394104004,29.296667734781902,339.03977394104004,34.571667750676475C339.03977394104004,39.846667766571045,339.03977394104004,47.063334465026855,339.03977394104004,54.280001163482666C339.03977394104004,61.49666786193848,339.03977394104004,68.71333456039429,339.03977394104004,73.98833457628886C339.03977394104004,79.26333459218343,339.03977394104004,82.59666792551677,339.03977394104004,84.26333459218343L339.03977394104004,85.9300012588501" style="stroke: rgb(0, 0, 0); stroke-width: 1px; fill: none; marker-end: url(&quot;#arrowhead-vee&quot;);"/><path id="edge-augmentation_layers" class="edge-path" d="M339.03977394104004,108.56000232696533L339.03977394104004,110.226668993632C339.03977394104004,111.89333566029866,339.03977394104004,115.226668993632,339.03977394104004,118.56000232696533C339.03977394104004,121.89333566029866,339.03977394104004,125.226668993632,339.03977394104004,126.89333566029866L339.03977394104004,128.56000232696533" style="stroke: rgb(0, 0, 0); stroke-width: 1px; fill: none; marker-end: url(&quot;#arrowhead-vee&quot;);"/><path id="edge-preprocessing_layers" class="edge-path" d="M339.03977394104004,151.19000339508057L339.03977394104004,152.85667006174722C339.03977394104004,154.5233367284139,339.03977394104004,157.85667006174722,339.03977394104004,161.19000339508057C339.03977394104004,164.5233367284139,339.03977394104004,167.85667006174722,339.03977394104004,169.5233367284139L339.03977394104004,171.19000339508057" style="stroke: rgb(0, 0, 0); stroke-width: 1px; fill: none; marker-end: url(&quot;#arrowhead-vee&quot;);"/><path id="edge-efficientnetb1" class="edge-path" d="M339.03977394104004,193.8200044631958L339.03977394104004,195.48667112986246C339.03977394104004,197.15333779652914,339.03977394104004,200.48667112986246,339.03977394104004,203.8200044631958C339.03977394104004,207.15333779652914,339.03977394104004,210.48667112986246,339.03977394104004,212.15333779652914L339.03977394104004,213.8200044631958" style="stroke: rgb(0, 0, 0); stroke-width: 1px; fill: none; marker-end: url(&quot;#arrowhead-vee&quot;);"/><path id="edge-shared_layers" class="edge-path" d="M388.47214698791504,228.28703885323938L435.9461793899536,231.31419996625132C483.4202117919922,234.34136107926327,578.3682765960693,240.39568330528718,625.8423089981079,245.08951108496578C673.3163414001465,249.78333886464438,673.3163414001465,253.1166721979777,673.3163414001465,254.78333886464438L673.3163414001465,256.45000553131104" style="stroke: rgb(0, 0, 0); stroke-width: 1px; fill: none; marker-end: url(&quot;#arrowhead-vee&quot;);"/><path id="edge-shared_layers" class="edge-path" d="M388.47214698791504,230.54877969612116L412.6707690556844,233.19898400198613C436.8693911234538,235.84918830785114,485.2666352589925,241.14959691958109,509.4652573267619,245.46646789211272C533.6638793945312,249.78333886464438,533.6638793945312,253.1166721979777,533.6638793945312,254.78333886464438L533.6638793945312,256.45000553131104" style="stroke: rgb(0, 0, 0); stroke-width: 1px; fill: none; marker-end: url(&quot;#arrowhead-vee&quot;);"/><path id="edge-shared_layers" class="edge-path" d="M370.92855002234523,236.45000553131104L375.6256739840751,238.1166721979777C380.322797945805,239.78333886464438,389.71704586926484,243.1166721979777,394.4141698309947,246.45000553131104C399.1112937927246,249.78333886464438,399.1112937927246,253.1166721979777,399.1112937927246,254.78333886464438L399.1112937927246,256.45000553131104" style="stroke: rgb(0, 0, 0); stroke-width: 1px; fill: none; marker-end: url(&quot;#arrowhead-vee&quot;);"/><path id="edge-shared_layers" class="edge-path" d="M307.15099785973484,236.45000553131104L302.45387389800493,238.1166721979777C297.75674993627507,239.78333886464438,288.36250201281524,243.1166721979777,283.6653780510854,246.45000553131104C278.96825408935547,249.78333886464438,278.96825408935547,253.1166721979777,278.96825408935547,254.78333886464438L278.96825408935547,256.45000553131104" style="stroke: rgb(0, 0, 0); stroke-width: 1px; fill: none; marker-end: url(&quot;#arrowhead-vee&quot;);"/><path id="edge-shared_layers" class="edge-path" d="M289.60740089416504,230.9321435262933L267.5538555781047,233.51845386046293C245.50031026204428,236.10476419463257,201.3932196299235,241.2773848629718,179.33967431386313,245.53036186380805C157.28612899780273,249.78333886464438,157.28612899780273,253.1166721979777,157.28612899780273,254.78333886464438L157.28612899780273,256.45000553131104" style="stroke: rgb(0, 0, 0); stroke-width: 1px; fill: none; marker-end: url(&quot;#arrowhead-vee&quot;);"/><path id="edge-shared_layers" class="edge-path" d="M289.60740089416504,228.68264242967228L248.34600098927817,231.64386961327875C207.08460108439127,234.6050967968852,124.56180127461751,240.52755116409813,83.30040136973064,245.15544501437125C42.03900146484375,249.78333886464438,42.03900146484375,253.1166721979777,42.03900146484375,254.78333886464438L42.03900146484375,256.45000553131104" style="stroke: rgb(0, 0, 0); stroke-width: 1px; fill: none; marker-end: url(&quot;#arrowhead-vee&quot;);"/><path id="edge-category_output" class="edge-path" d="M673.3163414001465,279.08000659942627L673.3163414001465,280.74667326609296C673.3163414001465,282.4133399327596,673.3163414001465,285.74667326609296,673.3163414001465,289.08000659942627C673.3163414001465,292.4133399327596,673.3163414001465,295.74667326609296,673.3163414001465,297.4133399327596L673.3163414001465,299.08000659942627" style="stroke: rgb(0, 0, 0); stroke-width: 1px; fill: none; marker-end: url(&quot;#arrowhead-vee&quot;);"/><path id="edge-ingredients_output" class="edge-path" d="M533.6638793945312,279.08000659942627L533.6638793945312,280.74667326609296C533.6638793945312,282.4133399327596,533.6638793945312,285.74667326609296,533.6638793945312,289.08000659942627C533.6638793945312,292.4133399327596,533.6638793945312,295.74667326609296,533.6638793945312,297.4133399327596L533.6638793945312,299.08000659942627" style="stroke: rgb(0, 0, 0); stroke-width: 1px; fill: none; marker-end: url(&quot;#arrowhead-vee&quot;);"/><path id="edge-calorie_output" class="edge-path" d="M399.1112937927246,279.08000659942627L399.1112937927246,280.74667326609296C399.1112937927246,282.4133399327596,399.1112937927246,285.74667326609296,399.1112937927246,289.08000659942627C399.1112937927246,292.4133399327596,399.1112937927246,295.74667326609296,399.1112937927246,297.4133399327596L399.1112937927246,299.08000659942627" style="stroke: rgb(0, 0, 0); stroke-width: 1px; fill: none; marker-end: url(&quot;#arrowhead-vee&quot;);"/><path id="edge-carbs_output" class="edge-path" d="M278.96825408935547,279.08000659942627L278.96825408935547,280.74667326609296C278.96825408935547,282.4133399327596,278.96825408935547,285.74667326609296,278.96825408935547,289.08000659942627C278.96825408935547,292.4133399327596,278.96825408935547,295.74667326609296,278.96825408935547,297.4133399327596L278.96825408935547,299.08000659942627" style="stroke: rgb(0, 0, 0); stroke-width: 1px; fill: none; marker-end: url(&quot;#arrowhead-vee&quot;);"/><path id="edge-protein_output" class="edge-path" d="M157.28612899780273,279.08000659942627L157.28612899780273,280.74667326609296C157.28612899780273,282.4133399327596,157.28612899780273,285.74667326609296,157.28612899780273,289.08000659942627C157.28612899780273,292.4133399327596,157.28612899780273,295.74667326609296,157.28612899780273,297.4133399327596L157.28612899780273,299.08000659942627" style="stroke: rgb(0, 0, 0); stroke-width: 1px; fill: none; marker-end: url(&quot;#arrowhead-vee&quot;);"/><path id="edge-fat_output" class="edge-path" d="M42.03900146484375,279.08000659942627L42.03900146484375,280.74667326609296C42.03900146484375,282.4133399327596,42.03900146484375,285.74667326609296,42.03900146484375,289.08000659942627C42.03900146484375,292.4133399327596,42.03900146484375,295.74667326609296,42.03900146484375,297.4133399327596L42.03900146484375,299.08000659942627" style="stroke: rgb(0, 0, 0); stroke-width: 1px; fill: none; marker-end: url(&quot;#arrowhead-vee&quot;);"/></g><g id="edge-labels" class="edge-labels"><text style="opacity: 1; font-family: -apple-system, BlinkMacSystemFont, &quot;Segoe WPC&quot;, &quot;Segoe UI&quot;, &quot;Ubuntu&quot;, &quot;Droid Sans&quot;, sans-serif, &quot;PingFang SC&quot;; font-size: 10px;" class="edge-label" id="edge-label-edge-input_1" transform="translate(344.03977394104004,47.630001068115234)"><tspan xml:space="preserve" dy="1em" x="1">?×224×224×3</tspan></text></g><g id="nodes" class="nodes"><g id="input-name-input_1" class="node graph-input" style="opacity: 1;" transform="translate(314.1381893157959,0)"><g class="node-item graph-item-input" transform="translate(0,0)"><path d="M5,0h39.80316925048828a5,5 0 0 1 5,5v12.630000114440918a5,5 0 0 1 -5,5h-39.80316925048828a5,5 0 0 1 -5,-5v-12.630000114440918a5,5 0 0 1 5,-5z" style="stroke: rgb(0, 0, 0); fill: rgb(238, 238, 238); stroke-width: 0px;"/><text x="6" y="15.880000114440918" style="font-family: -apple-system, BlinkMacSystemFont, &quot;Segoe WPC&quot;, &quot;Segoe UI&quot;, &quot;Ubuntu&quot;, &quot;Droid Sans&quot;, sans-serif, &quot;PingFang SC&quot;; font-size: 11px; text-rendering: geometricprecision;">input_1</text><title>float32[?,224,224,3]</title></g><path class="node border" d="M5,0h39.80316925048828a5,5 0 0 1 5,5v12.630000114440918a5,5 0 0 1 -5,5h-39.80316925048828a5,5 0 0 1 -5,-5v-12.630000114440918a5,5 0 0 1 5,-5z" style="stroke: rgb(51, 51, 51); fill: none; stroke-width: 1px;"/></g><g id="node-name-augmentation_layers" class="node graph-node" style="opacity: 1;" transform="translate(271.8112277984619,85.9300012588501)"><g class="node-item node-item-type" transform="translate(0,0)"><path d="M5,0h109.52716827392578a0,0 0 0 1 0,0v22.630000114440918a0,0 0 0 1 0,0h-109.52716827392578a5,5 0 0 1 -5,-5v-12.630000114440918a5,5 0 0 1 5,-5z" style="stroke: rgb(0, 0, 0); fill: rgb(0, 0, 0); stroke-width: 0px;"/><text x="6" y="15.880000114440918" style="font-family: -apple-system, BlinkMacSystemFont, &quot;Segoe WPC&quot;, &quot;Segoe UI&quot;, &quot;Ubuntu&quot;, &quot;Droid Sans&quot;, sans-serif, &quot;PingFang SC&quot;; font-size: 11px; text-rendering: geometricprecision; fill: rgb(255, 255, 255);">augmentation_layers</text><title>augmentation_layers</title></g><g class="node-item node-item-type" transform="translate(114.52716827392578,0)"><path d="M0,0h14.929916858673096a5,5 0 0 1 5,5v12.630000114440918a5,5 0 0 1 -5,5h-14.929916858673096a0,0 0 0 1 0,0v-22.630000114440918a0,0 0 0 1 0,0z" style="stroke: rgb(0, 0, 0); fill: rgb(0, 0, 0); stroke-width: 0px;"/><text x="6" y="15.880000114440918" style="font-family: -apple-system, BlinkMacSystemFont, &quot;Segoe WPC&quot;, &quot;Segoe UI&quot;, &quot;Ubuntu&quot;, &quot;Droid Sans&quot;, sans-serif, &quot;PingFang SC&quot;; font-size: 11px; text-rendering: geometricprecision; fill: rgb(255, 255, 255);">ƒ</text><title>Show Function Definition</title></g><path class="node border" d="M5,0h124.45708513259888a5,5 0 0 1 5,5v12.630000114440918a5,5 0 0 1 -5,5h-124.45708513259888a5,5 0 0 1 -5,-5v-12.630000114440918a5,5 0 0 1 5,-5z" style="stroke: rgb(51, 51, 51); fill: none; stroke-width: 1px;"/><line class="node" x1="114.52716827392578" x2="114.52716827392578" y1="0" y2="22.630000114440918" style="stroke: rgb(51, 51, 51); fill: none; stroke-width: 1px;"/></g><g id="node-name-preprocessing_layers" class="node graph-node" style="opacity: 1;" transform="translate(281.68635749816895,128.56000232696533)"><g class="node-item node-item-type" transform="translate(0,0)"><path d="M5,0h104.70683288574219a5,5 0 0 1 5,5v12.630000114440918a5,5 0 0 1 -5,5h-104.70683288574219a5,5 0 0 1 -5,-5v-12.630000114440918a5,5 0 0 1 5,-5z" style="stroke: rgb(0, 0, 0); fill: rgb(0, 0, 0); stroke-width: 0px;"/><text x="6" y="15.880000114440918" style="font-family: -apple-system, BlinkMacSystemFont, &quot;Segoe WPC&quot;, &quot;Segoe UI&quot;, &quot;Ubuntu&quot;, &quot;Droid Sans&quot;, sans-serif, &quot;PingFang SC&quot;; font-size: 11px; text-rendering: geometricprecision; fill: rgb(255, 255, 255);">preprocessing_layers</text><title>preprocessing_layers</title></g><path class="node border" d="M5,0h104.70683288574219a5,5 0 0 1 5,5v12.630000114440918a5,5 0 0 1 -5,5h-104.70683288574219a5,5 0 0 1 -5,-5v-12.630000114440918a5,5 0 0 1 5,-5z" style="stroke: rgb(51, 51, 51); fill: none; stroke-width: 1px;"/></g><g id="node-name-efficientnetb1" class="node graph-node" style="opacity: 1;" transform="translate(288.6485652923584,171.19000339508057)"><g class="node-item node-item-type" transform="translate(0,0)"><path d="M5,0h75.85250091552734a0,0 0 0 1 0,0v22.630000114440918a0,0 0 0 1 0,0h-75.85250091552734a5,5 0 0 1 -5,-5v-12.630000114440918a5,5 0 0 1 5,-5z" style="stroke: rgb(0, 0, 0); fill: rgb(0, 0, 0); stroke-width: 0px;"/><text x="6" y="15.880000114440918" style="font-family: -apple-system, BlinkMacSystemFont, &quot;Segoe WPC&quot;, &quot;Segoe UI&quot;, &quot;Ubuntu&quot;, &quot;Droid Sans&quot;, sans-serif, &quot;PingFang SC&quot;; font-size: 11px; text-rendering: geometricprecision; fill: rgb(255, 255, 255);">efficientnetb1</text><title>efficientnetb1</title></g><g class="node-item node-item-type" transform="translate(80.85250091552734,0)"><path d="M0,0h14.929916858673096a5,5 0 0 1 5,5v12.630000114440918a5,5 0 0 1 -5,5h-14.929916858673096a0,0 0 0 1 0,0v-22.630000114440918a0,0 0 0 1 0,0z" style="stroke: rgb(0, 0, 0); fill: rgb(0, 0, 0); stroke-width: 0px;"/><text x="6" y="15.880000114440918" style="font-family: -apple-system, BlinkMacSystemFont, &quot;Segoe WPC&quot;, &quot;Segoe UI&quot;, &quot;Ubuntu&quot;, &quot;Droid Sans&quot;, sans-serif, &quot;PingFang SC&quot;; font-size: 11px; text-rendering: geometricprecision; fill: rgb(255, 255, 255);">ƒ</text><title>Show Function Definition</title></g><path class="node border" d="M5,0h90.78241777420044a5,5 0 0 1 5,5v12.630000114440918a5,5 0 0 1 -5,5h-90.78241777420044a5,5 0 0 1 -5,-5v-12.630000114440918a5,5 0 0 1 5,-5z" style="stroke: rgb(51, 51, 51); fill: none; stroke-width: 1px;"/><line class="node" x1="80.85250091552734" x2="80.85250091552734" y1="0" y2="22.630000114440918" style="stroke: rgb(51, 51, 51); fill: none; stroke-width: 1px;"/></g><g id="node-name-shared_layers" class="node graph-node" style="opacity: 1;" transform="translate(289.60740089416504,213.8200044631958)"><g class="node-item node-item-type" transform="translate(0,0)"><path d="M5,0h73.93482971191406a0,0 0 0 1 0,0v22.630000114440918a0,0 0 0 1 0,0h-73.93482971191406a5,5 0 0 1 -5,-5v-12.630000114440918a5,5 0 0 1 5,-5z" style="stroke: rgb(0, 0, 0); fill: rgb(0, 0, 0); stroke-width: 0px;"/><text x="6" y="15.880000114440918" style="font-family: -apple-system, BlinkMacSystemFont, &quot;Segoe WPC&quot;, &quot;Segoe UI&quot;, &quot;Ubuntu&quot;, &quot;Droid Sans&quot;, sans-serif, &quot;PingFang SC&quot;; font-size: 11px; text-rendering: geometricprecision; fill: rgb(255, 255, 255);">shared_layers</text><title>shared_layers</title></g><g class="node-item node-item-type" transform="translate(78.93482971191406,0)"><path d="M0,0h14.929916858673096a5,5 0 0 1 5,5v12.630000114440918a5,5 0 0 1 -5,5h-14.929916858673096a0,0 0 0 1 0,0v-22.630000114440918a0,0 0 0 1 0,0z" style="stroke: rgb(0, 0, 0); fill: rgb(0, 0, 0); stroke-width: 0px;"/><text x="6" y="15.880000114440918" style="font-family: -apple-system, BlinkMacSystemFont, &quot;Segoe WPC&quot;, &quot;Segoe UI&quot;, &quot;Ubuntu&quot;, &quot;Droid Sans&quot;, sans-serif, &quot;PingFang SC&quot;; font-size: 11px; text-rendering: geometricprecision; fill: rgb(255, 255, 255);">ƒ</text><title>Show Function Definition</title></g><path class="node border" d="M5,0h88.86474657058716a5,5 0 0 1 5,5v12.630000114440918a5,5 0 0 1 -5,5h-88.86474657058716a5,5 0 0 1 -5,-5v-12.630000114440918a5,5 0 0 1 5,-5z" style="stroke: rgb(51, 51, 51); fill: none; stroke-width: 1px;"/><line class="node" x1="78.93482971191406" x2="78.93482971191406" y1="0" y2="22.630000114440918" style="stroke: rgb(51, 51, 51); fill: none; stroke-width: 1px;"/></g><g id="node-name-category_output" class="node graph-node" style="opacity: 1;" transform="translate(616.5474243164062,256.45000553131104)"><g class="node-item node-item-type" transform="translate(0,0)"><path d="M5,0h88.60791778564453a0,0 0 0 1 0,0v22.630000114440918a0,0 0 0 1 0,0h-88.60791778564453a5,5 0 0 1 -5,-5v-12.630000114440918a5,5 0 0 1 5,-5z" style="stroke: rgb(0, 0, 0); fill: rgb(0, 0, 0); stroke-width: 0px;"/><text x="6" y="15.880000114440918" style="font-family: -apple-system, BlinkMacSystemFont, &quot;Segoe WPC&quot;, &quot;Segoe UI&quot;, &quot;Ubuntu&quot;, &quot;Droid Sans&quot;, sans-serif, &quot;PingFang SC&quot;; font-size: 11px; text-rendering: geometricprecision; fill: rgb(255, 255, 255);">category_output</text><title>category_output</title></g><g class="node-item node-item-type" transform="translate(93.60791778564453,0)"><path d="M0,0h14.929916858673096a5,5 0 0 1 5,5v12.630000114440918a5,5 0 0 1 -5,5h-14.929916858673096a0,0 0 0 1 0,0v-22.630000114440918a0,0 0 0 1 0,0z" style="stroke: rgb(0, 0, 0); fill: rgb(0, 0, 0); stroke-width: 0px;"/><text x="6" y="15.880000114440918" style="font-family: -apple-system, BlinkMacSystemFont, &quot;Segoe WPC&quot;, &quot;Segoe UI&quot;, &quot;Ubuntu&quot;, &quot;Droid Sans&quot;, sans-serif, &quot;PingFang SC&quot;; font-size: 11px; text-rendering: geometricprecision; fill: rgb(255, 255, 255);">ƒ</text><title>Show Function Definition</title></g><path class="node border" d="M5,0h103.53783464431763a5,5 0 0 1 5,5v12.630000114440918a5,5 0 0 1 -5,5h-103.53783464431763a5,5 0 0 1 -5,-5v-12.630000114440918a5,5 0 0 1 5,-5z" style="stroke: rgb(51, 51, 51); fill: none; stroke-width: 1px;"/><line class="node" x1="93.60791778564453" x2="93.60791778564453" y1="0" y2="22.630000114440918" style="stroke: rgb(51, 51, 51); fill: none; stroke-width: 1px;"/></g><g id="node-name-ingredients_output" class="node graph-node" style="opacity: 1;" transform="translate(470.78033447265625,256.45000553131104)"><g class="node-item node-item-type" transform="translate(0,0)"><path d="M5,0h100.83717346191406a0,0 0 0 1 0,0v22.630000114440918a0,0 0 0 1 0,0h-100.83717346191406a5,5 0 0 1 -5,-5v-12.630000114440918a5,5 0 0 1 5,-5z" style="stroke: rgb(0, 0, 0); fill: rgb(0, 0, 0); stroke-width: 0px;"/><text x="6" y="15.880000114440918" style="font-family: -apple-system, BlinkMacSystemFont, &quot;Segoe WPC&quot;, &quot;Segoe UI&quot;, &quot;Ubuntu&quot;, &quot;Droid Sans&quot;, sans-serif, &quot;PingFang SC&quot;; font-size: 11px; text-rendering: geometricprecision; fill: rgb(255, 255, 255);">ingredients_output</text><title>ingredients_output</title></g><g class="node-item node-item-type" transform="translate(105.83717346191406,0)"><path d="M0,0h14.929916858673096a5,5 0 0 1 5,5v12.630000114440918a5,5 0 0 1 -5,5h-14.929916858673096a0,0 0 0 1 0,0v-22.630000114440918a0,0 0 0 1 0,0z" style="stroke: rgb(0, 0, 0); fill: rgb(0, 0, 0); stroke-width: 0px;"/><text x="6" y="15.880000114440918" style="font-family: -apple-system, BlinkMacSystemFont, &quot;Segoe WPC&quot;, &quot;Segoe UI&quot;, &quot;Ubuntu&quot;, &quot;Droid Sans&quot;, sans-serif, &quot;PingFang SC&quot;; font-size: 11px; text-rendering: geometricprecision; fill: rgb(255, 255, 255);">ƒ</text><title>Show Function Definition</title></g><path class="node border" d="M5,0h115.76709032058716a5,5 0 0 1 5,5v12.630000114440918a5,5 0 0 1 -5,5h-115.76709032058716a5,5 0 0 1 -5,-5v-12.630000114440918a5,5 0 0 1 5,-5z" style="stroke: rgb(51, 51, 51); fill: none; stroke-width: 1px;"/><line class="node" x1="105.83717346191406" x2="105.83717346191406" y1="0" y2="22.630000114440918" style="stroke: rgb(51, 51, 51); fill: none; stroke-width: 1px;"/></g><g id="node-name-calorie_output" class="node graph-node" style="opacity: 1;" transform="translate(347.44225311279297,256.45000553131104)"><g class="node-item node-item-type" transform="translate(0,0)"><path d="M5,0h78.40816497802734a0,0 0 0 1 0,0v22.630000114440918a0,0 0 0 1 0,0h-78.40816497802734a5,5 0 0 1 -5,-5v-12.630000114440918a5,5 0 0 1 5,-5z" style="stroke: rgb(0, 0, 0); fill: rgb(0, 0, 0); stroke-width: 0px;"/><text x="6" y="15.880000114440918" style="font-family: -apple-system, BlinkMacSystemFont, &quot;Segoe WPC&quot;, &quot;Segoe UI&quot;, &quot;Ubuntu&quot;, &quot;Droid Sans&quot;, sans-serif, &quot;PingFang SC&quot;; font-size: 11px; text-rendering: geometricprecision; fill: rgb(255, 255, 255);">calorie_output</text><title>calorie_output</title></g><g class="node-item node-item-type" transform="translate(83.40816497802734,0)"><path d="M0,0h14.929916858673096a5,5 0 0 1 5,5v12.630000114440918a5,5 0 0 1 -5,5h-14.929916858673096a0,0 0 0 1 0,0v-22.630000114440918a0,0 0 0 1 0,0z" style="stroke: rgb(0, 0, 0); fill: rgb(0, 0, 0); stroke-width: 0px;"/><text x="6" y="15.880000114440918" style="font-family: -apple-system, BlinkMacSystemFont, &quot;Segoe WPC&quot;, &quot;Segoe UI&quot;, &quot;Ubuntu&quot;, &quot;Droid Sans&quot;, sans-serif, &quot;PingFang SC&quot;; font-size: 11px; text-rendering: geometricprecision; fill: rgb(255, 255, 255);">ƒ</text><title>Show Function Definition</title></g><path class="node border" d="M5,0h93.33808183670044a5,5 0 0 1 5,5v12.630000114440918a5,5 0 0 1 -5,5h-93.33808183670044a5,5 0 0 1 -5,-5v-12.630000114440918a5,5 0 0 1 5,-5z" style="stroke: rgb(51, 51, 51); fill: none; stroke-width: 1px;"/><line class="node" x1="83.40816497802734" x2="83.40816497802734" y1="0" y2="22.630000114440918" style="stroke: rgb(51, 51, 51); fill: none; stroke-width: 1px;"/></g><g id="node-name-carbs_output" class="node graph-node" style="opacity: 1;" transform="translate(230.49425506591797,256.45000553131104)"><g class="node-item node-item-type" transform="translate(0,0)"><path d="M5,0h72.01808166503906a0,0 0 0 1 0,0v22.630000114440918a0,0 0 0 1 0,0h-72.01808166503906a5,5 0 0 1 -5,-5v-12.630000114440918a5,5 0 0 1 5,-5z" style="stroke: rgb(0, 0, 0); fill: rgb(0, 0, 0); stroke-width: 0px;"/><text x="6" y="15.880000114440918" style="font-family: -apple-system, BlinkMacSystemFont, &quot;Segoe WPC&quot;, &quot;Segoe UI&quot;, &quot;Ubuntu&quot;, &quot;Droid Sans&quot;, sans-serif, &quot;PingFang SC&quot;; font-size: 11px; text-rendering: geometricprecision; fill: rgb(255, 255, 255);">carbs_output</text><title>carbs_output</title></g><g class="node-item node-item-type" transform="translate(77.01808166503906,0)"><path d="M0,0h14.929916858673096a5,5 0 0 1 5,5v12.630000114440918a5,5 0 0 1 -5,5h-14.929916858673096a0,0 0 0 1 0,0v-22.630000114440918a0,0 0 0 1 0,0z" style="stroke: rgb(0, 0, 0); fill: rgb(0, 0, 0); stroke-width: 0px;"/><text x="6" y="15.880000114440918" style="font-family: -apple-system, BlinkMacSystemFont, &quot;Segoe WPC&quot;, &quot;Segoe UI&quot;, &quot;Ubuntu&quot;, &quot;Droid Sans&quot;, sans-serif, &quot;PingFang SC&quot;; font-size: 11px; text-rendering: geometricprecision; fill: rgb(255, 255, 255);">ƒ</text><title>Show Function Definition</title></g><path class="node border" d="M5,0h86.94799852371216a5,5 0 0 1 5,5v12.630000114440918a5,5 0 0 1 -5,5h-86.94799852371216a5,5 0 0 1 -5,-5v-12.630000114440918a5,5 0 0 1 5,-5z" style="stroke: rgb(51, 51, 51); fill: none; stroke-width: 1px;"/><line class="node" x1="77.01808166503906" x2="77.01808166503906" y1="0" y2="22.630000114440918" style="stroke: rgb(51, 51, 51); fill: none; stroke-width: 1px;"/></g><g id="node-name-protein_output" class="node graph-node" style="opacity: 1;" transform="translate(104.0780029296875,256.45000553131104)"><g class="node-item node-item-type" transform="translate(0,0)"><path d="M5,0h81.48633575439453a0,0 0 0 1 0,0v22.630000114440918a0,0 0 0 1 0,0h-81.48633575439453a5,5 0 0 1 -5,-5v-12.630000114440918a5,5 0 0 1 5,-5z" style="stroke: rgb(0, 0, 0); fill: rgb(0, 0, 0); stroke-width: 0px;"/><text x="6" y="15.880000114440918" style="font-family: -apple-system, BlinkMacSystemFont, &quot;Segoe WPC&quot;, &quot;Segoe UI&quot;, &quot;Ubuntu&quot;, &quot;Droid Sans&quot;, sans-serif, &quot;PingFang SC&quot;; font-size: 11px; text-rendering: geometricprecision; fill: rgb(255, 255, 255);">protein_output</text><title>protein_output</title></g><g class="node-item node-item-type" transform="translate(86.48633575439453,0)"><path d="M0,0h14.929916858673096a5,5 0 0 1 5,5v12.630000114440918a5,5 0 0 1 -5,5h-14.929916858673096a0,0 0 0 1 0,0v-22.630000114440918a0,0 0 0 1 0,0z" style="stroke: rgb(0, 0, 0); fill: rgb(0, 0, 0); stroke-width: 0px;"/><text x="6" y="15.880000114440918" style="font-family: -apple-system, BlinkMacSystemFont, &quot;Segoe WPC&quot;, &quot;Segoe UI&quot;, &quot;Ubuntu&quot;, &quot;Droid Sans&quot;, sans-serif, &quot;PingFang SC&quot;; font-size: 11px; text-rendering: geometricprecision; fill: rgb(255, 255, 255);">ƒ</text><title>Show Function Definition</title></g><path class="node border" d="M5,0h96.41625261306763a5,5 0 0 1 5,5v12.630000114440918a5,5 0 0 1 -5,5h-96.41625261306763a5,5 0 0 1 -5,-5v-12.630000114440918a5,5 0 0 1 5,-5z" style="stroke: rgb(51, 51, 51); fill: none; stroke-width: 1px;"/><line class="node" x1="86.48633575439453" x2="86.48633575439453" y1="0" y2="22.630000114440918" style="stroke: rgb(51, 51, 51); fill: none; stroke-width: 1px;"/></g><g id="node-name-fat_output" class="node graph-node" style="opacity: 1;" transform="translate(0,256.45000553131104)"><g class="node-item node-item-type" transform="translate(0,0)"><path d="M5,0h59.1480827331543a0,0 0 0 1 0,0v22.630000114440918a0,0 0 0 1 0,0h-59.1480827331543a5,5 0 0 1 -5,-5v-12.630000114440918a5,5 0 0 1 5,-5z" style="stroke: rgb(0, 0, 0); fill: rgb(0, 0, 0); stroke-width: 0px;"/><text x="6" y="15.880000114440918" style="font-family: -apple-system, BlinkMacSystemFont, &quot;Segoe WPC&quot;, &quot;Segoe UI&quot;, &quot;Ubuntu&quot;, &quot;Droid Sans&quot;, sans-serif, &quot;PingFang SC&quot;; font-size: 11px; text-rendering: geometricprecision; fill: rgb(255, 255, 255);">fat_output</text><title>fat_output</title></g><g class="node-item node-item-type" transform="translate(64.1480827331543,0)"><path d="M0,0h14.929916858673096a5,5 0 0 1 5,5v12.630000114440918a5,5 0 0 1 -5,5h-14.929916858673096a0,0 0 0 1 0,0v-22.630000114440918a0,0 0 0 1 0,0z" style="stroke: rgb(0, 0, 0); fill: rgb(0, 0, 0); stroke-width: 0px;"/><text x="6" y="15.880000114440918" style="font-family: -apple-system, BlinkMacSystemFont, &quot;Segoe WPC&quot;, &quot;Segoe UI&quot;, &quot;Ubuntu&quot;, &quot;Droid Sans&quot;, sans-serif, &quot;PingFang SC&quot;; font-size: 11px; text-rendering: geometricprecision; fill: rgb(255, 255, 255);">ƒ</text><title>Show Function Definition</title></g><path class="node border" d="M5,0h74.07799959182739a5,5 0 0 1 5,5v12.630000114440918a5,5 0 0 1 -5,5h-74.07799959182739a5,5 0 0 1 -5,-5v-12.630000114440918a5,5 0 0 1 5,-5z" style="stroke: rgb(51, 51, 51); fill: none; stroke-width: 1px;"/><line class="node" x1="64.1480827331543" x2="64.1480827331543" y1="0" y2="22.630000114440918" style="stroke: rgb(51, 51, 51); fill: none; stroke-width: 1px;"/></g><g class="node" style="opacity: 1;" transform="translate(626.5123825073242,299.08000659942627)"><g class="node-item graph-item-output" transform="translate(0,0)"><path d="M5,0h83.60791778564453a5,5 0 0 1 5,5v12.630000114440918a5,5 0 0 1 -5,5h-83.60791778564453a5,5 0 0 1 -5,-5v-12.630000114440918a5,5 0 0 1 5,-5z" style="stroke: rgb(0, 0, 0); fill: rgb(238, 238, 238); stroke-width: 0px;"/><text x="6" y="15.880000114440918" style="font-family: -apple-system, BlinkMacSystemFont, &quot;Segoe WPC&quot;, &quot;Segoe UI&quot;, &quot;Ubuntu&quot;, &quot;Droid Sans&quot;, sans-serif, &quot;PingFang SC&quot;; font-size: 11px; text-rendering: geometricprecision;">category_output</text></g><path class="node border" d="M5,0h83.60791778564453a5,5 0 0 1 5,5v12.630000114440918a5,5 0 0 1 -5,5h-83.60791778564453a5,5 0 0 1 -5,-5v-12.630000114440918a5,5 0 0 1 5,-5z" style="stroke: rgb(51, 51, 51); fill: none; stroke-width: 1px;"/></g><g class="node" style="opacity: 1;" transform="translate(480.7452926635742,299.08000659942627)"><g class="node-item graph-item-output" transform="translate(0,0)"><path d="M5,0h95.83717346191406a5,5 0 0 1 5,5v12.630000114440918a5,5 0 0 1 -5,5h-95.83717346191406a5,5 0 0 1 -5,-5v-12.630000114440918a5,5 0 0 1 5,-5z" style="stroke: rgb(0, 0, 0); fill: rgb(238, 238, 238); stroke-width: 0px;"/><text x="6" y="15.880000114440918" style="font-family: -apple-system, BlinkMacSystemFont, &quot;Segoe WPC&quot;, &quot;Segoe UI&quot;, &quot;Ubuntu&quot;, &quot;Droid Sans&quot;, sans-serif, &quot;PingFang SC&quot;; font-size: 11px; text-rendering: geometricprecision;">ingredients_output</text></g><path class="node border" d="M5,0h95.83717346191406a5,5 0 0 1 5,5v12.630000114440918a5,5 0 0 1 -5,5h-95.83717346191406a5,5 0 0 1 -5,-5v-12.630000114440918a5,5 0 0 1 5,-5z" style="stroke: rgb(51, 51, 51); fill: none; stroke-width: 1px;"/></g><g class="node" style="opacity: 1;" transform="translate(357.40721130371094,299.08000659942627)"><g class="node-item graph-item-output" transform="translate(0,0)"><path d="M5,0h73.40816497802734a5,5 0 0 1 5,5v12.630000114440918a5,5 0 0 1 -5,5h-73.40816497802734a5,5 0 0 1 -5,-5v-12.630000114440918a5,5 0 0 1 5,-5z" style="stroke: rgb(0, 0, 0); fill: rgb(238, 238, 238); stroke-width: 0px;"/><text x="6" y="15.880000114440918" style="font-family: -apple-system, BlinkMacSystemFont, &quot;Segoe WPC&quot;, &quot;Segoe UI&quot;, &quot;Ubuntu&quot;, &quot;Droid Sans&quot;, sans-serif, &quot;PingFang SC&quot;; font-size: 11px; text-rendering: geometricprecision;">calorie_output</text></g><path class="node border" d="M5,0h73.40816497802734a5,5 0 0 1 5,5v12.630000114440918a5,5 0 0 1 -5,5h-73.40816497802734a5,5 0 0 1 -5,-5v-12.630000114440918a5,5 0 0 1 5,-5z" style="stroke: rgb(51, 51, 51); fill: none; stroke-width: 1px;"/></g><g class="node" style="opacity: 1;" transform="translate(240.45921325683594,299.08000659942627)"><g class="node-item graph-item-output" transform="translate(0,0)"><path d="M5,0h67.01808166503906a5,5 0 0 1 5,5v12.630000114440918a5,5 0 0 1 -5,5h-67.01808166503906a5,5 0 0 1 -5,-5v-12.630000114440918a5,5 0 0 1 5,-5z" style="stroke: rgb(0, 0, 0); fill: rgb(238, 238, 238); stroke-width: 0px;"/><text x="6" y="15.880000114440918" style="font-family: -apple-system, BlinkMacSystemFont, &quot;Segoe WPC&quot;, &quot;Segoe UI&quot;, &quot;Ubuntu&quot;, &quot;Droid Sans&quot;, sans-serif, &quot;PingFang SC&quot;; font-size: 11px; text-rendering: geometricprecision;">carbs_output</text></g><path class="node border" d="M5,0h67.01808166503906a5,5 0 0 1 5,5v12.630000114440918a5,5 0 0 1 -5,5h-67.01808166503906a5,5 0 0 1 -5,-5v-12.630000114440918a5,5 0 0 1 5,-5z" style="stroke: rgb(51, 51, 51); fill: none; stroke-width: 1px;"/></g><g class="node" style="opacity: 1;" transform="translate(114.04296112060547,299.08000659942627)"><g class="node-item graph-item-output" transform="translate(0,0)"><path d="M5,0h76.48633575439453a5,5 0 0 1 5,5v12.630000114440918a5,5 0 0 1 -5,5h-76.48633575439453a5,5 0 0 1 -5,-5v-12.630000114440918a5,5 0 0 1 5,-5z" style="stroke: rgb(0, 0, 0); fill: rgb(238, 238, 238); stroke-width: 0px;"/><text x="6" y="15.880000114440918" style="font-family: -apple-system, BlinkMacSystemFont, &quot;Segoe WPC&quot;, &quot;Segoe UI&quot;, &quot;Ubuntu&quot;, &quot;Droid Sans&quot;, sans-serif, &quot;PingFang SC&quot;; font-size: 11px; text-rendering: geometricprecision;">protein_output</text></g><path class="node border" d="M5,0h76.48633575439453a5,5 0 0 1 5,5v12.630000114440918a5,5 0 0 1 -5,5h-76.48633575439453a5,5 0 0 1 -5,-5v-12.630000114440918a5,5 0 0 1 5,-5z" style="stroke: rgb(51, 51, 51); fill: none; stroke-width: 1px;"/></g><g class="node" style="opacity: 1;" transform="translate(9.964958190917969,299.08000659942627)"><g class="node-item graph-item-output" transform="translate(0,0)"><path d="M5,0h54.1480827331543a5,5 0 0 1 5,5v12.630000114440918a5,5 0 0 1 -5,5h-54.1480827331543a5,5 0 0 1 -5,-5v-12.630000114440918a5,5 0 0 1 5,-5z" style="stroke: rgb(0, 0, 0); fill: rgb(238, 238, 238); stroke-width: 0px;"/><text x="6" y="15.880000114440918" style="font-family: -apple-system, BlinkMacSystemFont, &quot;Segoe WPC&quot;, &quot;Segoe UI&quot;, &quot;Ubuntu&quot;, &quot;Droid Sans&quot;, sans-serif, &quot;PingFang SC&quot;; font-size: 11px; text-rendering: geometricprecision;">fat_output</text></g><path class="node border" d="M5,0h54.1480827331543a5,5 0 0 1 5,5v12.630000114440918a5,5 0 0 1 -5,5h-54.1480827331543a5,5 0 0 1 -5,-5v-12.630000114440918a5,5 0 0 1 5,-5z" style="stroke: rgb(51, 51, 51); fill: none; stroke-width: 1px;"/></g></g></g></svg>